<svg xmlns="http://www.w3.org/2000/svg">
  <symbol id="search-icon" viewBox="-0.8 -0.8 17.6 17.6">
    <path
      d="M16.47 14.93l-3.415-3.415A7.67 7.67 0 0 0 14.6 6.899C14.6 2.646 11.153-.8 6.9-.8S-.8 2.646-.8 6.899s3.446 7.7 7.699 7.7c1.734 0 3.326-.58 4.613-1.546l3.417 3.416c.203.202.418.33.771.33a1.1 1.1 0 0 0 1.1-1.1c0-.24-.061-.499-.33-.769zM1.399 6.899a5.5 5.5 0 1 1 11 0c0 3.038-2.462 5.5-5.5 5.5s-5.5-2.461-5.5-5.5z" />
  </symbol>
  <symbol id="cart-icon" viewBox="264.205 370.961 20.294 18.849">
    <path
      d="M283.75 378.19h-3.151l-3.407-6.814a.75.75 0 1 0-1.341.671l3.071 6.143h-9.138l3.072-6.143a.75.75 0 0 0-1.341-.671l-3.407 6.814h-3.151a.75.75 0 0 0 0 1.5h.157l.855 2.991a.737.737 0 0 0-.316.595c0 .396.309.71.697.739l1.656 5.795h12.697l1.656-5.795a.745.745 0 0 0 .698-.739.738.738 0 0 0-.316-.596l.854-2.991h.157a.75.75 0 1 0-.002-1.499zm-4.181 10.121h-10.433l-1.224-4.284h12.881l-1.224 4.284zm1.653-5.785h-13.739l-.81-2.836h15.359l-.81 2.836z" />
  </symbol>
  <symbol id="separator" viewBox="0 0 1150 23">
    <path
      d="M1150 23c-9.017 0-13.728-4.589-17.514-8.276-3.412-3.323-5.877-5.724-11.234-5.724-5.358 0-7.823 2.401-11.235 5.724-3.786 3.688-8.497 8.276-17.514 8.276s-13.728-4.589-17.514-8.276c-3.412-3.323-5.877-5.724-11.234-5.724s-7.822 2.401-11.234 5.724c-3.786 3.688-8.497 8.276-17.514 8.276s-13.729-4.589-17.515-8.276C1014.08 11.401 1011.615 9 1006.257 9c-5.357 0-7.822 2.401-11.234 5.724-3.787 3.687-8.498 8.276-17.514 8.276s-13.728-4.589-17.514-8.276C956.583 11.401 954.118 9 948.761 9s-7.822 2.401-11.234 5.724C933.74 18.411 929.028 23 920.012 23s-13.729-4.589-17.515-8.276C899.085 11.401 896.62 9 891.263 9s-7.822 2.401-11.234 5.724C876.242 18.411 871.53 23 862.514 23s-13.729-4.589-17.515-8.276C841.587 11.401 839.122 9 833.764 9c-5.355 0-7.82 2.4-11.231 5.723-3.786 3.688-8.497 8.277-17.512 8.277-9.017 0-13.729-4.589-17.515-8.276C784.094 11.401 781.629 9 776.271 9c-5.356 0-7.821 2.401-11.232 5.723-3.786 3.688-8.497 8.277-17.513 8.277-9.017 0-13.729-4.589-17.514-8.277C726.602 11.401 724.137 9 718.779 9s-7.821 2.401-11.233 5.723C703.761 18.411 699.049 23 690.032 23c-9.016 0-13.727-4.589-17.512-8.276C669.109 11.401 666.645 9 661.287 9s-7.822 2.401-11.234 5.724C646.267 18.411 641.556 23 632.539 23s-13.729-4.589-17.515-8.276C611.612 11.401 609.147 9 603.788 9c-5.357 0-7.822 2.401-11.234 5.724C588.768 18.411 584.057 23 575.04 23c-9.016 0-13.728-4.589-17.514-8.276C554.115 11.401 551.65 9 546.292 9s-7.823 2.401-11.234 5.724C531.272 18.411 526.561 23 517.544 23s-13.729-4.589-17.514-8.276C496.619 11.401 494.153 9 488.796 9c-5.358 0-7.823 2.401-11.235 5.724-3.787 3.687-8.499 8.276-17.515 8.276-9.017 0-13.729-4.589-17.516-8.276C439.118 11.401 436.653 9 431.293 9c-5.358 0-7.823 2.401-11.235 5.724C416.272 18.411 411.56 23 402.543 23s-13.729-4.589-17.515-8.276C381.616 11.401 379.151 9 373.792 9c-5.358 0-7.823 2.401-11.235 5.724-3.786 3.687-8.498 8.276-17.515 8.276s-13.729-4.589-17.515-8.276C324.114 11.401 321.649 9 316.291 9s-7.824 2.401-11.236 5.724C301.269 18.411 296.556 23 287.539 23c-9.018 0-13.729-4.589-17.516-8.276C266.611 11.401 264.145 9 258.786 9c-5.357 0-7.822 2.401-11.234 5.724-3.785 3.687-8.497 8.276-17.513 8.276-9.017 0-13.729-4.589-17.515-8.276C209.112 11.401 206.647 9 201.289 9s-7.824 2.401-11.236 5.724C186.267 18.411 181.555 23 172.538 23c-9.018 0-13.73-4.589-17.517-8.276C151.609 11.401 149.144 9 143.784 9s-7.825 2.401-11.238 5.724c-3.787 3.687-8.5 8.276-17.517 8.276-9.018 0-13.73-4.589-17.517-8.276C94.099 11.401 91.633 9 86.273 9s-7.826 2.401-11.239 5.724C71.249 18.411 66.536 23 57.518 23 48.5 23 43.787 18.412 40 14.724 36.586 11.401 34.12 9 28.759 9s-7.827 2.401-11.24 5.724C13.732 18.411 9.019 23 0 23v-9c5.361 0 7.827-2.401 11.241-5.724C15.028 4.588 19.741 0 28.759 0S42.49 4.588 46.278 8.276C49.691 11.599 52.157 14 57.518 14c5.36 0 7.825-2.401 11.238-5.724C72.543 4.589 77.255 0 86.273 0s13.73 4.589 17.517 8.276c3.413 3.323 5.879 5.724 11.239 5.724s7.826-2.401 11.238-5.724C130.054 4.589 134.767 0 143.784 0s13.73 4.589 17.517 8.276c3.412 3.323 5.878 5.724 11.237 5.724 5.358 0 7.824-2.401 11.236-5.724C187.56 4.589 192.272 0 201.289 0c9.017 0 13.729 4.589 17.515 8.276 3.412 3.323 5.877 5.724 11.235 5.724 5.357 0 7.822-2.401 11.234-5.724C245.059 4.589 249.77 0 258.786 0c9.017 0 13.729 4.589 17.516 8.276C279.714 11.599 282.18 14 287.539 14s7.824-2.401 11.236-5.724C302.562 4.589 307.274 0 316.291 0c9.017 0 13.729 4.589 17.515 8.276 3.412 3.323 5.877 5.724 11.236 5.724 5.359 0 7.824-2.401 11.236-5.724C360.063 4.589 364.775 0 373.792 0s13.729 4.589 17.516 8.276C394.72 11.599 397.185 14 402.543 14s7.823-2.401 11.235-5.724C417.565 4.589 422.277 0 431.293 0c9.018 0 13.729 4.589 17.516 8.276 3.412 3.323 5.877 5.724 11.236 5.724 5.358 0 7.823-2.401 11.235-5.724C475.067 4.589 479.779 0 488.796 0c9.016 0 13.728 4.589 17.514 8.276 3.412 3.323 5.877 5.724 11.235 5.724 5.357 0 7.822-2.401 11.234-5.724C532.564 4.589 537.275 0 546.292 0c9.016 0 13.728 4.589 17.514 8.276C567.217 11.599 569.682 14 575.04 14c5.357 0 7.822-2.401 11.234-5.724C590.061 4.589 594.771 0 603.788 0c9.018 0 13.729 4.589 17.516 8.276 3.412 3.323 5.877 5.724 11.235 5.724 5.357 0 7.822-2.401 11.234-5.724C647.56 4.589 652.271 0 661.287 0s13.728 4.589 17.513 8.277C682.211 11.6 684.676 14 690.032 14c5.357 0 7.822-2.401 11.234-5.724C705.052 4.589 709.764 0 718.779 0s13.728 4.589 17.513 8.276c3.412 3.323 5.877 5.724 11.234 5.724 5.356 0 7.821-2.401 11.232-5.723C762.544 4.589 767.255 0 776.271 0c9.017 0 13.729 4.589 17.515 8.276 3.412 3.323 5.877 5.724 11.235 5.724 5.356 0 7.821-2.401 11.232-5.724C820.038 4.589 824.749 0 833.764 0c9.017 0 13.729 4.589 17.515 8.276C854.69 11.599 857.155 14 862.514 14s7.823-2.401 11.235-5.724C877.535 4.589 882.247 0 891.263 0c9.017 0 13.728 4.589 17.514 8.276 3.412 3.323 5.877 5.724 11.235 5.724s7.823-2.401 11.235-5.724C935.033 4.589 939.744 0 948.761 0s13.728 4.589 17.514 8.276c3.412 3.323 5.877 5.724 11.234 5.724s7.822-2.401 11.234-5.724C992.529 4.589 997.24 0 1006.257 0s13.729 4.589 17.515 8.276c3.412 3.323 5.877 5.724 11.235 5.724 5.357 0 7.822-2.401 11.234-5.724 3.786-3.688 8.497-8.276 17.514-8.276s13.728 4.589 17.514 8.276c3.412 3.323 5.877 5.724 11.234 5.724s7.822-2.401 11.234-5.724c3.786-3.688 8.498-8.276 17.515-8.276s13.728 4.589 17.514 8.276C1142.178 11.599 1144.643 14 1150 14v9z" />
  </symbol>
  <symbol id="instagram-icon" viewBox="53.115 53.19 21.769 21.334">
    <path
      d="M74.881 65.336c-.013-2.395-.344-4.788-.303-7.135a37.854 37.854 0 0 0-.152-2.278c-.105-.3-.111-.699-.152-1.062-.26-.17-.222-.64-.456-.835-.423-.233-1.201-.114-1.744-.22-.657-.026-1.254-.115-1.899-.153-1.936-.101-3.973-.076-5.996-.076-2.001 0-3.954-.145-5.695-.379h-2.202c-.097.004-.105.098-.227.076-.599.034-1.077.188-1.595.303-.21.119-.421.235-.683.304-.136.192-.513.145-.607.379-.186.212.185.451 0 .607v.911c.173.13.027.58.075.835v.987c-.017 1.281.134 2.397.076 3.72.467 2.762.374 6.537.076 9.413.155.579.363 1.105.455 1.746.256.479.335 1.133.683 1.52.502.206 1.233.186 1.898.229.383.098.667.293 1.14.3 2.843-.21 5.496-.154 8.427-.229 2.704.24 5.802.188 8.275-.228.195-.134.128-.529.228-.76-.056-.385.207-.449.228-.759.131-2.395.164-4.789.15-7.216zm-12.982-6.225c.757-.153 1.48-.341 2.429-.304.71.076 1.287.283 1.897.456.116.184-.243.547.153.684v.076c.059.017.149.002.151.076.445.035.794.167 1.063.379.45.055.536.476 1.138.3-.091.213-.084.524-.075.835.324 1.183.475 2.81.303 4.252-.164.163-.215.442-.303.683-.311.322-.481.785-.836 1.062-.095.236-.25.408-.454.533-.116.213-.206.452-.457.53-.298.163-.577.011-.834-.076-.446.162-.904.312-1.215.607-.816-.096-1.648-.175-2.43-.304-.242-.139-.487-.273-.835-.305a1.997 1.997 0 0 0-.836-.455c-.101-.127-.337-.118-.455-.229-.198-.029-.229-.227-.456-.229-.118-.412-.443-.618-.532-1.062-.226-.331-.308-.805-.455-1.215-.043-1.434.091-2.692.379-3.796.346-.591.779-1.094 1.138-1.67.249.021.365-.09.38-.304.306.053.434-.072.684-.075.257.008.269-.309.458-.449zm-1.67-2.733c-.117-.263-.066-.691-.075-1.062-.007-.285.278-.279.304-.532-.003-.074-.093-.059-.152-.076.126-.146.701-.097.834 0 .132.537-.354.455-.531.684.011.167.322.032.456.076.029.854-.059 1.496 0 2.202h-.456c-.007.234.229.226.456.228-.059.286.092.363.075.607-.226.153-.716.042-1.062.075-.103-.594.235-1.375.151-2.202zm-.683-1.594c.088-.013.134.016.151.076.179.253.01.683-.076.911-.173-.179-.026-.682-.075-.987zm.152 1.822c-.132-.069-.168-.237-.152-.456.132.071.167.238.152.456zm0 1.367c-.058.139-.082-.045-.076-.152.058-.139.081.045.076.152zm-.152.228c.175-.024.084.219.228.227-.009.193-.283.179-.38.077.039-.112.113-.193.152-.304zm-2.354-1.216c.006-.108.013-.214-.076-.228-.073-.733.13-1.415 0-1.973.25-.155.769-.042 1.139-.077v1.139c-.088.064-.203.101-.379.077-.054.28.324.131.379.304.008.853-.056 1.777.152 2.429-.565-.059-.906.107-1.442.076.097-.612-.019-1.435.531-1.594-.012-.141-.257-.047-.304-.153zm-.531 0c-.204.021-.217-.534-.077-.607.328.006.249.501.077.607zm-.152.988c.077-.312.034-.304.075-.683.228.013.26.77-.075.683zm.228-2.05c-.263.054-.273-.266-.153-.38.263-.053.272.267.153.38zm0-1.139c.033.159-.052.201-.076.304-.176.023-.084-.219-.229-.229.025-.102.191-.062.305-.075zm-.228 3.721c.148-.031.11.345-.076.227a.363.363 0 0 0 .076-.227zm-.684-3.721c.029.259-.438.32-.379 0h.379zm-.987.076c-.034.219-.326.179-.379.379-.214-.17.084-.468.379-.379zm-.455.759c.226-.205.451-.41.684-.607-.021-.123.071-.131.076-.228h.229c.102.381-.261.296-.305.531.021.122-.072.131-.075.227.02.335.121.588.075.988-.27.008-.276.28-.607.227.022-.428-.135-.674-.077-1.138zm.076 3.265V57.29c.195-.185.396-.364.607-.532.295.489.179 1.392.455 1.897-.275.157-.75.111-1.062.229zM72.68 69.968c-.109.954-.158 1.968-.379 2.809-2.89.123-6.02.005-8.883.153-.199.045-.273-.031-.229-.229-.253 0-.258.247-.531.229.201-.336.438-.898.151-1.291-.797.013-.797.821-1.138 1.291-.686-.053-1.137.127-1.823.075.18-.705.75-1.021.911-1.745-.395-.55-.989.138-1.214.455-.204.48-.557.81-.76 1.29H57.8c.238-.469.489-.926.759-1.366.171-.512.625-.741.683-1.367-.157-.28-.42-.029-.683 0-.123.182-.272.335-.38.531-.232.376-.501.714-.684 1.14-.181.208-.335.003-.53.227-.389.271-.581.736-.988.987-.174-.06.039-.356.153-.38.045-.181-.096-.55.075-.607.063-.366.212-.647.379-.91.119-.742.521-1.199.684-1.898-.559.099-.674.643-.988.987-.212.445-.542.772-.683 1.291-.174-.131-.028-.58-.076-.836.122-.586.298-1.119.38-1.746.133-.22.173-.535.228-.834.168-.209.046-.61-.077-.761-.226.027-.374.133-.455.304-.192-.032-.193.506-.304.304-.045-2.587-.451-4.812-.456-7.438.026-.331-.183-.424-.228-.685 1.629.028 3.121.091 4.783.229-.089.139-.199.257-.304.379-.144.07-.226.173-.378.304-.604 1.653-.975 3.984-.607 6.15.229.58.589 1.029.986 1.441.907.485 1.635 1.149 2.506 1.671 1.701.361 3.84.369 5.541 0 .236-.12.484-.226.685-.38 1.364-1.242 2.753-2.459 2.961-4.859v-1.367c-.197-1.598-.688-2.905-1.747-3.644.331-.22 1.099.043 1.67.076.223.013.447.014.684 0 .408-.024.928-.055 1.443 0 .144.187.113.544.228.76-.062 1.684-.192 3.3-.152 5.087.103.454.127.986.229 1.441-.091.973-.237 1.89-.457 2.732zm.379-11.16c-.639-.12-1.232-.284-1.897-.379.072-.333.799-.01.987-.228.385-.223.295-.92.304-1.51.032-.348.114-.644.076-1.063-.401-.951-1.783-.421-2.886-.455-.225.718-.47 1.8-.304 2.657.169.49 1.024.292 1.519.456-.14.332-.688.057-.987.076-.296-.083-.707-.052-.986-.151-2.285.078-4.284.004-6.529.151.117-1.248.063-2.465-.076-3.645h3.112c-.344.364-.912.507-1.29.835-.44.244-.861.505-1.139.911.249.134.535-.245.759-.379.355-.074.479-.381.835-.455.423-.438 1.096-.625 1.67-.912.378-.022.697.013.987.077 1.283.007 2.456.126 3.796.076.614.145 1.45.069 1.974.304.107.298.231.579.305.911.008.986-.149 1.816-.23 2.723zm-5.845-3.72c.11-.047-.009-.092 0 0zm0 0c-.529.154-1.019.348-1.367.682.484-.198 1.059-.306 1.367-.682zm1.062.607c.111-.047-.007-.091 0 0zm-1.746.911c.727-.158 1.181-.591 1.746-.911-.437.019-.592.32-.987.379-.215.217-.6.26-.759.532zm-.683-.835c-.111.047.007.092 0 0zm-.683.607c.11-.046-.008-.092 0 0zm-.075.076c.063.014.07-.03.075-.076-.064-.014-.072.03-.075.076zm-.077.076c.064.014.072-.03.077-.076-.067-.013-.072.029-.077.076zm-.834.608c.346-.134.613-.348.834-.607a2.018 2.018 0 0 0-.834.607zm2.276.987c.533-.049.749-.416 1.215-.531.284-.298.784-.381.987-.76-.56.023-.766.399-1.216.531-.284.297-.751.413-.986.76zm-2.276-.987c-.317-.074-.016.227 0 0zm-.533.379c.021.021.115-.037.076-.077-.021-.02-.116.038-.076.077zm2.809.608c-.11.047.007.091 0 0zm-1.14 1.821c-.223-.231-.676-.233-.986-.379-.697-.038-1.223.093-1.746.229-.304.151-.607.304-.91.454-.266.166-.444.417-.76.532-.205.225-.352.51-.684.607-.004.223-.173.281-.304.379-.089.115-.094.312-.227.381-.007.12.036.29-.076.303.108 1.512.291 2.948.683 4.177.287.623.975.846 1.442 1.29.589.297 1.328.444 2.126.531.277-.052.553-.105.911-.076a5.088 5.088 0 0 0 2.81-1.441c.1-.281.252-.508.455-.684-.254-.671.293-1.098.455-1.59.002-1.344-.201-2.48-.607-3.415-.256-.579-.92-.751-1.366-1.139-.059-.018-.15-.003-.151-.077-.269-.136-.733-.239-1.065-.082zm-3.415 4.327c-.113-.063-.109-.244-.152-.379.256-.078.118.237.152.379zm.076.305c.041-.117.079-.006.076.075-.04.118-.079.005-.076-.075zm.456-2.051c.015-.086.075-.042.075 0-.014.087-.075.043-.075 0zm1.67-2.125c-.203.258.041.576.077.836-.305-.039-.574-.887-.077-.836zm.379 3.948c-.04-.038.055-.097.076-.076.04.038-.054.097-.076.076zm.759 2.884c.034-.109.066.008.152 0-.018.097-.15.077-.152 0zm2.201-2.581c-.233-.057-.145.208-.379.152.069-.159.118-.338.229-.455.134.019.172.13.15.303zm-1.137-3.796c.211.119.441.217.606.381.085.219.243.363.38.529.058.778.179 1.492.151 2.354-.257.099-.438.271-.683.381-.78-.006-1.358-.212-1.897-.456-.171-.259-.355-.505-.532-.759v-1.062c.17-.185.319-.391.456-.607.228-.127.508-.201.454-.607-.038-.062-.078-.124-.075-.229.158.045.245.159.379.229.323.017.41-.2.761-.154z" />
  </symbol>
  <symbol id="facebook-icon" viewBox="56.519 49.996 14.962 27.718">
    <path
      d="M68.181 55.188c1.026.029 1.993 0 2.681-.3.391-.818.556-1.854.619-2.989-.19-.015-.062-.337-.207-.399-.029-.202-.278-.195-.309-.398-.277-.165-.457-.422-.723-.598-.727-.162-1.44-.335-2.164-.499-.849.044-1.895-.103-2.58.1-2.619-.04-3.997 1.12-5.259 2.392-.023.078-.003.197-.105.199-.574 1.587-.125 3.621-.204 5.581.099.436.107.958.204 1.395-.998.296-2.212.387-3.402.499-.317.324-.178 1.089-.206 1.693.085.583.278 1.06.413 1.595.211.193.596.396.825.498.065.029.071.082.103.1.506.268 1.451.008 2.268.1-.136 1.978.256 3.915 0 5.68.007.327.295.382.208.798-.001.963-.067 1.99.208 2.69-.287.455-.497.982-.415 1.794.122.016.114.157.105.299-.075.47.643.175.515.698.162.456-.428.184-.413.498v.896c.53.285 1.462.182 2.268.199.908-.419 2.188-.479 2.785-1.196.459.235.916-.014 1.238-.199-.018-.315.273-.333.205-.698-.004-.328-.173-.496-.103-.896v-2.89c-.206-2.293-.048-4.938-.309-7.176.888-.105 1.917-.075 2.578-.398.357-.451.377-1.23.516-1.895.177-.226.221-.583.206-.996.19-.213.068-.729.104-1.096-.141-.595-.168-1.3-.825-1.39-.884-.235-2.043.595-2.991.299.049-1.134-.293-2.342 0-3.388.746-.181 1.446-.4 2.166-.602zm-3.818 4.783c.117.254.254.486.414.698.079.022.203.003.205.101a10.319 10.319 0 0 0 3.096-.299c0 .998-.271 1.733-.518 2.492-.662.045-1.467.3-1.958.198-.276.165-.372.506-.62.698-.049.441.142.495 0 .797-.201.137-.055.611-.205.796v1.496c.085.281-.146.258-.104.497v3.488c-.085.281.146.258.104.498v2.989c.063.271-.132.791.103.896-.07.364-.412-.021-.824.1-.528.122-.926.369-1.548.4.117-.353.32-.622.311-1.097.049-.381-.365-.312-.516-.49.193-.644.562-1.117.722-1.793.197-.515.714-1.298.31-1.794-.522-.105-.521.293-.826.398-.022.077-.002.196-.103.199-.023.077-.003.196-.103.199.01.12-.151.062 0 0 .022-.078.002-.197.103-.199.023-.077.002-.197.103-.199v-.299c.368-.575.67-1.214.826-1.993.191-.28.283-.656.412-.997.156-.262.34-.869.104-1.195-.517.033-.796.295-.93.697-.32-.189.161-.434.104-.697.138-.231.169-.566.309-.797.202-.413.564-1.304 0-1.596-.438-.023-.612.207-.723.498-.214.191-.43.383-.516.698-.373-.07-.143-.727-.206-1.097-.067-.52.122-.899 0-1.195-.56-.799-2.026-.105-3.197-.299-.108-.307-.222-.984-.104-1.195 1.045-.088 2.479.201 3.197-.199.024-.078.003-.197.104-.199.094-.723-.271-1-.515-1.396.232-.806.04-2.02.104-2.989.233-.141.328-.414.515-.598.112-.955.673-1.476.722-2.49-.273.001-.607-.055-.619.199-.302-.114-.382.479-.515.199-.112-.541.246-.626.309-.997.599-.418 1.212-.82 1.856-1.195 1.741-.244 4.648-.449 6.086.198.051.616-.287.854-.207 1.496h-1.546c-1.092.24-1.987.672-2.991.997-.24.066-.276.331-.516.398-.036.396-.225.646-.311.996-.079 1.431.133 2.589.102 3.978z" />
  </symbol>
  <symbol id="twitter-icon" viewBox="52.253 53.771 23.494 20.168">
    <path
      d="M75.706 57.855c-.227-.366-.909-.277-1.407-.371h-1.112c.142-.353.343-.646.52-.963.056-.438.254-.734.223-1.26.129-.167.176-.417.296-.593.104-.144.242-.477.074-.667-.051-.221-.295-.249-.593-.222a.515.515 0 0 0-.222.148c-.448.433-.778 1.014-1.261 1.408-.009.008-.062 0-.074 0-.087.005-.033.046-.075.074-.146.098-.257.152-.369.223-.284.176-.547.445-.891.519-.529-.211-1.156-.326-1.852-.37-1.157.102-2.303.215-3.038.741-.911.35-1.477 1.042-2.149 1.63-.049.32-.342.398-.37.741-.005.045-.012.088-.073.074.043.241-.051.345-.074.519-.001.133.199.431 0 .52-.822-.12-1.485-.63-2.149-.964-.718-.36-1.468-.604-2.074-1.111-.716-.322-1.26-.816-1.778-1.334-.208-.312-.542-.496-.667-.89-.379-.164-.175-.912-.741-.889-.315-.043-.345.199-.444.37-.07.227-.361.232-.371.519-.004.046-.011.088-.074.075-.17 1.089-.527 1.992-.519 3.26.129.415.35.738.593 1.038-.418.051-.716.222-.89.519-.06 1.073.378 1.647.742 2.297.134.384.352.685.593.963.017.229.206.288.296.445.019.105.123.125.149.223-.04.105.289.18.073.221-.413.131-1.016.07-1.259.371-.109.279-.109.833 0 1.111.034.237.282.262.296.519.499.417 1.082.747 1.631 1.112.574.166 1.211.271 1.852.37-.102.343-.338.551-.593.741-.78.381-1.849.474-2.742.74-.555.038-.956.23-1.556.223-.333.127-.854.075-1.112.223-.122.068-.102.096-.222.221-.134.412.111.74.444.89-.005.253.219.276.371.371.089.183.254.29.445.37.544.468 1.268.759 1.927 1.112.83.183 1.648.376 2.52.519.896.116 1.901.124 2.816.222h.963c.511.132 1.23.054 1.853.074.095-.102.322-.073.519-.074.522-.269 1.196-.385 1.631-.74.574-.241.989-.642 1.557-.89.866-.765 1.937-1.324 2.519-2.37.205-.189.351-.438.445-.74.265-.156.385-.454.593-.667.404-.41.706-.924 1.037-1.4.319-.496.576-1.054.89-1.556-.01-.405.306-.484.296-.89.193-.226.177-.662.371-.88-.033-.255.029-.415.074-.594.047-1.281-.047-2.422-.297-3.407.588-.155 1.181-.302 1.631-.593.52-.206.993-.603.808-1.281zm-3.408 4.076c-.153.859-.615 1.41-1.038 2.001.059.379-.104.538-.073.889a4.303 4.303 0 0 0-.371 1.037c-.203.267-.332.606-.519.89-.366.548-.777 1.051-1.186 1.557-.378.56-.912.965-1.334 1.481-.42.493-.942.885-1.407 1.334-.474.17-.89.396-1.26.667a5.06 5.06 0 0 0-.667.296c-.177.146-.499.145-.668.29-1.086.147-2.3.17-3.555.148-1.031-.105-2.115-.159-3.039-.371-.922-.189-1.511-.712-2.297-1.037.153-.242.634-.154.963-.222.031-.166.394-.003.444-.149.257.06.285-.109.52-.07.563-.201 1.23-.302 1.705-.593.282-.138.406-.434.667-.593.033-.189.104-.341.222-.444.047-.275.201-.441.148-.815.111-.21.299-.343.296-.667-.074-.147-.128-.316-.296-.371-.026-.196-.377-.067-.444-.222-.255.032-.416-.029-.593-.075-.154-.043-.487.092-.519-.073-.842-.023-1.3-.43-1.853-.74.431-.262 1.032-.353 1.333-.742.516-.076 1.058-.129 1.112-.666 0-.717-.771-.661-1.333-.815-.773-.66-1.194-1.672-1.779-2.52.238-.157.564-.226.741-.444.454.058.54-.251.667-.52.019-.488-.333-.605-.593-.815a3.49 3.49 0 0 1-.667-.74c-.003-.818-.021-1.652.074-2.372.063-.014.07.029.074.074.227.441.559.775.815 1.186.532.357.925.853 1.556 1.112.452.413 1.108.621 1.557 1.038.601.263 1.158.57 1.704.889.669.194 1.056.673 2.001.593.198-.098.394-.199.593-.297.258-.456-.059-1.079.147-1.63.255-.659.797-1.031 1.26-1.481.29-.155.555-.335.815-.519.347-.098.675-.216.964-.37a6.223 6.223 0 0 0 1.037-.148h1.26c.244.052.475.119.74.148.209.137.38.313.666.371.789.693 1.271 1.696 1.409 3.039-.122.484.053.873.001 1.481zm.296-5.632c-.129.34-.23.707-.593.815-.017-.105-.122-.125-.147-.222-.012-.209.209-.186.296-.296.162-.085.245-.248.444-.297-.007-.09.108-.046 0 0zm-5.484 3.038c.163.135.284.31.519.371.101.221.314.327.594.37.047-.15.346-.049.37-.222.174-.023.166-.229.296-.297-.018-.55-.129-1.006-.37-1.333-.758-.423-1.676.039-1.409 1.111z" />
  </symbol>
  <symbol id="htmlacademy-logo">
    <path
      d="M13.62.017L13.472 0 0 1.412v24.661l13.473 8.017 13.43-7.99.042-.025V1.412L13.62.017zm11.399 12.11L13.495 5.334l-.001-.104-.087.05-.088-.056v.109L1.925 12.118V3.147l11.548-1.212L25.02 3.147v8.98zm-11.614-5.34L24.923 13.5l-4.479 2.64-7.093-4.221-.014 1.415 5.904 3.513-.86.507-5.03-2.992-.014 1.415 3.827 2.275-.782.523-3.031-1.787-.014 1.413 1.853 1.091-1.8 1.081-11.356-6.751 11.371-6.835zm-11.48 8.34l11.411 6.791.016 1.044-7.942-4.728-.015 1.416 7.979 4.795.018 1.076-7.973-4.74-.013 1.414 8.021 4.822.046.025 8.143-4.872-.011-5.177 3.415-2.036v10.021L13.472 31.85 1.925 24.979v-9.852z" />
  </symbol>
  <symbol id="phone-icon">
    <path
      d="M17.321 24.333h-1.115c-4.904-.58-8.497-2.857-11.11-5.772C2.473 15.637.402 11.875 0 6.817V5.459c.091-.921.544-1.55 1.067-2.086.65-.666 1.63-1.522 2.522-1.553.659-.022 1.78.451 2.232 1.066.388.53.595 1.59.775 2.378.185.797.6 1.95.485 2.717-.176 1.196-1.764 1.703-2.231 2.572 1.551 3.721 4.089 6.456 7.472 8.345.847-.465 1.595-1.864 2.767-1.892.428-.012.972.209 1.406.34.477.143.891.326 1.311.484.705.266 1.957.621 2.378 1.213.433.61.681 1.608.581 2.231-.194 1.234-2.227 2.603-3.444 3.059zM12.529 1.528c5.949 0 10.771 4.822 10.771 10.771h1.529C24.829 5.507 19.323 0 12.529 0v1.528z" />
    <path
      d="M12.529 9.327v1.552c.785 0 1.421.636 1.421 1.42h1.553c-.001-1.642-1.331-2.972-2.974-2.972zM12.529 6.246c3.345 0 6.056 2.71 6.056 6.054h1.588c0-4.22-3.422-7.641-7.644-7.641v1.587z" />
  </symbol>
  <symbol id="email-icon">
    <path
      d="M28 5H4C1.791 5 0 6.792 0 9v13c0 2.209 1.791 4 4 4h24c2.209 0 4-1.791 4-4V9c0-2.208-1.791-4-4-4zM2 10.25l6.999 5.25L2 20.75v-10.5zM30 22c0 1.104-.898 2-2 2H4c-1.103 0-2-.896-2-2l7.832-5.875 4.368 3.277c.533.397 1.166.6 1.8.6.633 0 1.266-.201 1.799-.6l4.369-3.277L30 22zm0-1.25l-7-5.25 7-5.25v10.5zm-12.801-2.148c-.35.263-.763.4-1.199.4s-.851-.139-1.2-.4L10.665 15.5l-.833-.625L2 9.001V9c0-1.103.897-2 2-2h24c1.102 0 2 .897 2 2l-12.801 9.602z" />
  </symbol>
  <symbol id="footer-logo" viewBox="0 0 101.615 34.056">
  <g>
    <path d="M19.135,21.495c-0.083-2.683-0.51-5.347-0.475-8.035c0.028-2.174,0.389-4.41-0.36-6.495 c0.047-0.237,0.096-0.473,0.14-0.711c0.193-1.045-3.271-0.492-3.813,0.464c-0.343,0.28-0.519,0.615-0.375,0.957 c0.037,0.086,0.069,0.174,0.102,0.261c-0.656,3.204-1.57,6.306-2.621,9.412c-0.402,1.188-0.888,2.349-1.298,3.533 c-0.582-1.104-1.169-2.194-1.643-3.377C7.418,14.071,6.18,10.602,4.505,7.298C4.695,5.77,1.301,5.93,0.632,7.33 c-0.809,1.694-0.705,3.403-0.438,5.214c0.3,2.042,0.353,4.05,0.377,6.111c0.047,3.976,0.358,7.943,0.417,11.919 c-0.354,0.395-0.461,0.881-0.091,1.375c0.162,0.216,0.361,0.382,0.571,0.549c0.904,0.724,3.5,0.107,3.496-1.271 c-0.014-4.123-0.312-8.238-0.42-12.358c-0.011-0.404-0.018-0.807-0.024-1.21c0.057,0.145,0.114,0.29,0.171,0.434 c0.64,1.604,1.31,3.163,2.185,4.654c0.868,1.478,1.303,3.064,1.803,4.677c-0.189,0.217-0.303,0.462-0.233,0.708 c-0.039,0.18,0.07,0.292,0.251,0.36c0.639,0.548,1.841,0.274,2.509-0.007c0.287-0.121,0.561-0.261,0.826-0.424 c0.345-0.212,0.883-0.679,0.729-1.159c-0.03-0.093-0.058-0.186-0.087-0.279c0.47-1.27,0.709-2.589,0.965-3.93 c0.272-1.428,0.782-2.78,1.295-4.133c0.052,0.619,0.106,1.238,0.156,1.855c0.204,2.554,0.033,5.072,0.007,7.626 c-0.008,0.847,0.054,1.633,0.219,2.461c0.068,0.343,0.367,1.808,0.281,1.887c-0.611,0.564-0.433,1.257,0.385,1.437 c0.915,0.201,2.081-0.105,2.77-0.742c1.198-1.106,0.632-2.845,0.361-4.241C18.661,26.501,19.208,23.879,19.135,21.495z"/>
    <path d="M27.499,22.17c-0.074-1.988-0.765-3.862-0.774-5.872c-0.011-2.305,0.181-4.593-0.155-6.886 c-0.106-0.725-4.056,0.1-3.917,1.05c0.309,2.11,0.197,4.229,0.159,6.354c-0.037,2.044,0.468,3.898,0.73,5.904 c0.269,2.054-0.084,4.157,0.149,6.213c0.109,0.962,0.75,2.743,0.089,3.58c-0.42,0.532,1.469,0.342,1.553,0.326 c0.769-0.142,1.793-0.392,2.304-1.038c0.653-0.828,0.196-2.426,0.053-3.357C27.374,26.385,27.576,24.249,27.499,22.17z"/>
    <path d="M43.828,18.851c-2.062-2.784-5.889-0.78-8.561-1.54c-1.377-0.392-1.395-2.271-1.392-3.396 c0.004-1.426-0.114-2.732-0.273-4.146c-0.119-1.052-0.024-2.121,0.746-2.904c0.142-0.144,0.859-0.336,0.81-0.339 c0.354-0.061,0.676-0.076,1.067-0.093c1.549-0.066,4.613,0.232,4.019,2.483c-0.266,1.01,3.596,0.431,3.877-0.637 c1.213-4.598-7.284-3.714-9.686-3.078C32.225,5.789,29.787,7.047,29.66,9.6c-0.061,1.219,0.273,2.379,0.325,3.587 c0.061,1.39-0.198,2.776,0.289,4.118c1.082,2.982,5.52,1.576,7.778,1.745c3.845,0.287,2.697,5.469,2.748,7.883 c0.027,1.288,1.181,3.429,0.211,4.507c-0.595,0.662-1.982,0.699-2.792,0.768c-0.813,0.068-2.201,0.312-2.742-0.461 c-0.993-1.418,0.091-3.799-0.121-5.425c-0.121-0.924-4.066-0.095-3.917,1.05c0.342,2.627-1.399,6.145,2.402,6.596 c2.441,0.289,5.191-0.161,7.5-0.928c1.196-0.396,2.307-0.942,3.243-1.793c1.035-0.941,0.694-2.348,0.417-3.547 C44.324,24.782,45.732,21.421,43.828,18.851z"/>
    <path d="M61.155,18.662c-0.122-3.777-0.69-7.513-0.706-11.297c-0.008-1.971-3.963-1.305-3.957,0.343 c0.015,3.608,0.497,7.167,0.682,10.764c0.004,0.074,0.008,0.147,0.013,0.221c-1.949-0.018-3.899,0.177-5.853,0.246 c0.201-4.633-0.611-9.227-0.435-13.857c0.022-0.582-3.874-0.09-3.917,1.049c-0.171,4.475,0.587,8.915,0.453,13.392 c-0.064,2.136-0.245,4.264-0.259,6.402c-0.007,1.095,0.171,2.183,0.329,3.263c0.146,0.999,0.484,2.331,0.182,3.318 c-0.237,0.772,3.561,0.29,3.862-0.694c0.544-1.778-0.222-4.039-0.405-5.839c-0.175-1.725-0.039-3.499,0.083-5.248 c2.03-0.13,4.059-0.297,6.08-0.012c0.09,1.378,0.196,2.754,0.322,4.134c0.105,1.157,0.179,2.313,0.196,3.475 c0.015,1.019,0.142,2.496-0.221,3.461c-0.773,2.057,3.15,1.889,3.723,0.364c0.703-1.87,0.502-4.199,0.383-6.164 C61.562,23.54,61.233,21.109,61.155,18.662z"/>
    <path d="M78.087,23.136c-0.939-2.758-2.373-5.177-3.616-7.797c1.001-1.949,2.018-3.898,2.932-5.888 c0.831-1.808,1.446-3.819,3.08-5.092c0.574-0.447,0.55-0.896-0.255-0.951c-0.875-0.061-2.064,0.192-2.77,0.742 c-1.485,1.158-2.427,2.563-3.201,4.268c-0.932,2.051-1.896,4.063-2.914,6.075c-0.074,0.147-0.149,0.295-0.224,0.443 c-0.49,0.315-0.785,0.762-0.639,1.266c-0.792,1.563-1.6,3.117-2.499,4.61c-0.299-5.534-0.955-11.061-1.15-16.6 c-0.045-1.27-3.971-0.479-3.917,1.049c0.243,6.868,1.219,13.719,1.286,20.587c-0.016,0.017-0.031,0.034-0.047,0.051 c-0.301,0.308-0.19,0.494,0.051,0.602c0.002,1.75-0.059,3.501-0.209,5.254c-0.472,0.745,0.463,1.139,1.084,1.139 c0.032,0,0.064,0,0.096,0c0.739,0,2.626-0.35,2.718-1.364c0.191-2.1,0.251-4.196,0.232-6.291c1.59-1.715,2.89-3.63,4.055-5.635 c0.759,1.48,1.482,2.972,1.989,4.582c0.861,2.741,2.299,5.261,3.131,8.014c0.544,1.806,4.457,0.738,3.917-1.049 C80.388,28.398,79.013,25.854,78.087,23.136z"/>
    <path d="M101.59,18.501c-0.21-0.832-1.372-0.849-2.271-0.77c-0.012-0.335-0.02-0.671-0.036-1.006 c-0.125-2.661-0.165-5.379-0.392-8.032c-0.209-2.458-1.585-3.337-3.972-3.247c-2.416,0.092-5.229,0.527-7.482,1.403 c-2.607,1.014-4.058,2.935-4.559,5.681c-0.549,3.014,0.24,6.219,0.373,9.246c0.154,3.503,0.066,7.014,0.062,10.519 c0,0.573,3.916,0.031,3.917-1.049c0.003-2.776,0.042-5.551,0-8.327c-0.013-0.818-0.051-1.632-0.102-2.444 c1.369-0.593,3.687,0.012,5.05,0.141c1.107,0.104,2.169-0.166,3.244-0.292c0.021,2.312,0.107,4.635,0.202,6.944 c0.049,1.184,0.477,3.53-0.354,4.511c-0.437,0.516,1.48,0.343,1.555,0.33c0.793-0.146,1.761-0.401,2.303-1.041 c0.949-1.12,0.456-3.79,0.401-5.126c-0.078-1.91-0.102-3.824-0.141-5.737C100.542,20.058,101.805,19.351,101.59,18.501z M86.972,18.351c-0.103-1.245-0.217-2.49-0.303-3.743c-0.16-2.331,0.117-5.583,2.29-6.999c0.58-0.379,1.675-0.315,2.354-0.438 c0.97-0.176,1.956-0.389,2.829,0.19c1.21,0.802,0.912,3.657,0.911,4.869c-0.003,2.005,0.207,4.001,0.31,6.003 c-0.552,0.055-1.111,0.089-1.683,0.076C91.394,18.256,89.136,17.896,86.972,18.351z"/>
    <path d="M24.108,6.7c0.521-0.05,1.045-0.226,1.477-0.524c0.085-0.072,0.171-0.144,0.256-0.216c0.52-0.335,0.972-0.827,0.728-1.361 c-0.504-1.105-0.423-2.231-0.416-3.414c0.006-0.958-0.963-1.246-1.781-1.174c-0.723,0.063-2.168,0.581-2.175,1.52 c-0.006,0.993-0.071,2.016,0.109,2.992c-0.047,0.113-0.074,0.239-0.104,0.355c-0.055,0.212,0.016,0.42,0.142,0.59 c0,0.045,0.002,0.089,0.002,0.134c0.005,0.112,0.01,0.224,0.015,0.335c0.073,0.232,0.216,0.409,0.429,0.53 C23.178,6.7,23.668,6.742,24.108,6.7z"/>
  </g>
</symbol>
</svg>
